<svg width="546" height="62" viewBox="0 0 546 62" fill="none" xmlns="http://www.w3.org/2000/svg">
<path d="M27.5312 31.0938V22.125C27.5312 20.8958 27.2917 19.7396 26.8125 18.6562C26.3542 17.5521 25.7188 16.5938 24.9062 15.7812C24.0938 14.9688 23.1354 14.3333 22.0312 13.875C20.9479 13.3958 19.7917 13.1562 18.5625 13.1562C17.3333 13.1562 16.1667 13.3958 15.0625 13.875C13.9792 14.3333 13.0312 14.9688 12.2188 15.7812C11.4062 16.5938 10.7604 17.5521 10.2812 18.6562C9.82292 19.7396 9.59375 20.8958 9.59375 22.125V31.0938H27.5312ZM36.5 49H27.5312V40.0312H9.59375V49H0.65625V22.125C0.65625 19.6458 1.125 17.3229 2.0625 15.1562C3 12.9688 4.27083 11.0625 5.875 9.4375C7.5 7.8125 9.39583 6.53125 11.5625 5.59375C13.75 4.65625 16.0833 4.1875 18.5625 4.1875C21.0417 4.1875 23.3646 4.65625 25.5312 5.59375C27.7188 6.53125 29.625 7.8125 31.25 9.4375C32.875 11.0625 34.1562 12.9688 35.0938 15.1562C36.0312 17.3229 36.5 19.6458 36.5 22.125V49ZM51.9062 49H43.375V15.5312H45.4375L48.25 19.5C49.625 18.25 51.1875 17.2917 52.9375 16.625C54.6875 15.9375 56.5 15.5938 58.375 15.5938H65.9062V24.0938H58.375C57.4792 24.0938 56.6354 24.2604 55.8438 24.5938C55.0521 24.9271 54.3646 25.3854 53.7812 25.9688C53.1979 26.5521 52.7396 27.2396 52.4062 28.0312C52.0729 28.8229 51.9062 29.6667 51.9062 30.5625V49ZM101.656 61.75H93.0625V46.75C92.4167 47.125 91.75 47.4896 91.0625 47.8438C90.3958 48.1979 89.6979 48.5208 88.9688 48.8125C88.2604 49.0833 87.5312 49.3021 86.7812 49.4688C86.0521 49.6354 85.3125 49.7188 84.5625 49.7188C82.2083 49.7188 79.9896 49.2917 77.9062 48.4375C75.8438 47.5625 74.0312 46.3438 72.4688 44.7812C70.9271 43.2188 69.7083 41.3542 68.8125 39.1875C67.9167 37 67.4688 34.5938 67.4688 31.9688C67.4688 29.3229 67.9167 26.9167 68.8125 24.75C69.7083 22.5625 70.9271 20.6979 72.4688 19.1562C74.0312 17.6146 75.8438 16.4271 77.9062 15.5938C79.9896 14.7396 82.2083 14.3125 84.5625 14.3125C85.6458 14.3125 86.7083 14.4479 87.75 14.7188C88.8125 14.9896 89.8438 15.3646 90.8438 15.8438C91.8438 16.3021 92.7917 16.8542 93.6875 17.5C94.6042 18.1458 95.4688 18.8333 96.2812 19.5625L99.5938 15.5938H101.656V61.75ZM93.0625 31.9688C93.0625 30.8021 92.8333 29.6771 92.375 28.5938C91.9375 27.4896 91.3333 26.5208 90.5625 25.6875C89.7917 24.8333 88.8854 24.1562 87.8438 23.6562C86.8229 23.1354 85.7292 22.875 84.5625 22.875C83.3958 22.875 82.2917 23.0938 81.25 23.5312C80.2292 23.9479 79.3333 24.5521 78.5625 25.3438C77.8125 26.1354 77.2188 27.0938 76.7812 28.2188C76.3438 29.3229 76.125 30.5729 76.125 31.9688C76.125 33.4062 76.3438 34.6979 76.7812 35.8438C77.2188 36.9688 77.8125 37.9167 78.5625 38.6875C79.3333 39.4583 80.2292 40.0521 81.25 40.4688C82.2917 40.8646 83.3958 41.0625 84.5625 41.0625C85.7292 41.0625 86.8229 40.8125 87.8438 40.3125C88.8854 39.7917 89.7917 39.1146 90.5625 38.2812C91.3333 37.4271 91.9375 36.4583 92.375 35.375C92.8333 34.2708 93.0625 33.1354 93.0625 31.9688ZM132.781 45.0938C132.094 45.7188 131.354 46.3125 130.562 46.875C129.792 47.4167 128.979 47.8958 128.125 48.3125C127.271 48.7083 126.385 49.0208 125.469 49.25C124.573 49.5 123.656 49.625 122.719 49.625C120.656 49.625 118.719 49.2604 116.906 48.5312C115.094 47.8021 113.5 46.7708 112.125 45.4375C110.771 44.0833 109.698 42.4479 108.906 40.5312C108.135 38.5938 107.75 36.4271 107.75 34.0312V15.5312H116.25V34.0312C116.25 35.1562 116.417 36.1667 116.75 37.0625C117.104 37.9375 117.573 38.6771 118.156 39.2812C118.74 39.8854 119.417 40.3438 120.188 40.6562C120.979 40.9688 121.823 41.125 122.719 41.125C123.594 41.125 124.417 40.9271 125.188 40.5312C125.979 40.1146 126.667 39.5729 127.25 38.9062C127.833 38.2396 128.292 37.4896 128.625 36.6562C128.958 35.8021 129.125 34.9271 129.125 34.0312V15.5312H137.656V49H135.594L132.781 45.0938ZM154.25 6.4375C154.25 7.22917 154.094 7.96875 153.781 8.65625C153.49 9.34375 153.083 9.94792 152.562 10.4688C152.042 10.9688 151.427 11.375 150.719 11.6875C150.031 11.9792 149.292 12.125 148.5 12.125C147.708 12.125 146.958 11.9792 146.25 11.6875C145.562 11.375 144.958 10.9688 144.438 10.4688C143.938 9.94792 143.531 9.34375 143.219 8.65625C142.927 7.96875 142.781 7.22917 142.781 6.4375C142.781 5.66667 142.927 4.9375 143.219 4.25C143.531 3.54167 143.938 2.9375 144.438 2.4375C144.958 1.91667 145.562 1.51042 146.25 1.21875C146.958 0.90625 147.708 0.75 148.5 0.75C149.292 0.75 150.031 0.90625 150.719 1.21875C151.427 1.51042 152.042 1.91667 152.562 2.4375C153.083 2.9375 153.49 3.54167 153.781 4.25C154.094 4.9375 154.25 5.66667 154.25 6.4375ZM152.781 49H144.188V15.5312H152.781V49ZM176.094 49C174.031 49 172.094 48.6146 170.281 47.8438C168.469 47.0521 166.875 45.9792 165.5 44.625C164.146 43.25 163.073 41.6562 162.281 39.8438C161.51 38.0312 161.125 36.0938 161.125 34.0312V24.0938H156.969V15.5938H161.125V2.21875H169.625V15.5938H182.562V24.0938H169.625V34.0312C169.625 34.9271 169.792 35.7708 170.125 36.5625C170.458 37.3333 170.917 38.0104 171.5 38.5938C172.083 39.1771 172.771 39.6458 173.562 40C174.354 40.3333 175.198 40.5 176.094 40.5H182.562V49H176.094ZM200.688 40.8125C201.021 40.9167 201.354 40.9896 201.688 41.0312C202.021 41.0521 202.354 41.0625 202.688 41.0625C203.521 41.0625 204.323 40.9479 205.094 40.7188C205.865 40.4896 206.583 40.1667 207.25 39.75C207.938 39.3125 208.542 38.7917 209.062 38.1875C209.604 37.5625 210.042 36.875 210.375 36.125L216.625 42.4062C215.833 43.5312 214.917 44.5417 213.875 45.4375C212.854 46.3333 211.74 47.0938 210.531 47.7188C209.344 48.3438 208.083 48.8125 206.75 49.125C205.438 49.4583 204.083 49.625 202.688 49.625C200.333 49.625 198.115 49.1875 196.031 48.3125C193.969 47.4375 192.156 46.2188 190.594 44.6562C189.052 43.0938 187.833 41.2396 186.938 39.0938C186.042 36.9271 185.594 34.5521 185.594 31.9688C185.594 29.3229 186.042 26.9062 186.938 24.7188C187.833 22.5312 189.052 20.6667 190.594 19.125C192.156 17.5833 193.969 16.3854 196.031 15.5312C198.115 14.6771 200.333 14.25 202.688 14.25C204.083 14.25 205.448 14.4167 206.781 14.75C208.115 15.0833 209.375 15.5625 210.562 16.1875C211.771 16.8125 212.896 17.5833 213.938 18.5C214.979 19.3958 215.896 20.4062 216.688 21.5312L200.688 40.8125ZM205.062 23.2188C204.667 23.0729 204.271 22.9792 203.875 22.9375C203.5 22.8958 203.104 22.875 202.688 22.875C201.521 22.875 200.417 23.0938 199.375 23.5312C198.354 23.9479 197.458 24.5521 196.688 25.3438C195.938 26.1354 195.344 27.0938 194.906 28.2188C194.469 29.3229 194.25 30.5729 194.25 31.9688C194.25 32.2812 194.26 32.6354 194.281 33.0312C194.323 33.4271 194.375 33.8333 194.438 34.25C194.521 34.6458 194.615 35.0312 194.719 35.4062C194.823 35.7812 194.958 36.1146 195.125 36.4062L205.062 23.2188ZM237.781 49C235.719 49 233.781 48.6146 231.969 47.8438C230.156 47.0521 228.562 45.9792 227.188 44.625C225.833 43.25 224.76 41.6562 223.969 39.8438C223.198 38.0312 222.812 36.0938 222.812 34.0312V24.0938H218.656V15.5938H222.812V2.21875H231.312V15.5938H244.25V24.0938H231.312V34.0312C231.312 34.9271 231.479 35.7708 231.812 36.5625C232.146 37.3333 232.604 38.0104 233.188 38.5938C233.771 39.1771 234.458 39.6458 235.25 40C236.042 40.3333 236.885 40.5 237.781 40.5H244.25V49H237.781ZM273.656 45.0938C272.969 45.7188 272.229 46.3125 271.438 46.875C270.667 47.4167 269.854 47.8958 269 48.3125C268.146 48.7083 267.26 49.0208 266.344 49.25C265.448 49.5 264.531 49.625 263.594 49.625C261.531 49.625 259.594 49.2604 257.781 48.5312C255.969 47.8021 254.375 46.7708 253 45.4375C251.646 44.0833 250.573 42.4479 249.781 40.5312C249.01 38.5938 248.625 36.4271 248.625 34.0312V15.5312H257.125V34.0312C257.125 35.1562 257.292 36.1667 257.625 37.0625C257.979 37.9375 258.448 38.6771 259.031 39.2812C259.615 39.8854 260.292 40.3438 261.062 40.6562C261.854 40.9688 262.698 41.125 263.594 41.125C264.469 41.125 265.292 40.9271 266.062 40.5312C266.854 40.1146 267.542 39.5729 268.125 38.9062C268.708 38.2396 269.167 37.4896 269.5 36.6562C269.833 35.8021 270 34.9271 270 34.0312V15.5312H278.531V49H276.469L273.656 45.0938ZM293.594 49H285.062V15.5312H287.125L289.938 19.5C291.312 18.25 292.875 17.2917 294.625 16.625C296.375 15.9375 298.188 15.5938 300.062 15.5938H307.594V24.0938H300.062C299.167 24.0938 298.323 24.2604 297.531 24.5938C296.74 24.9271 296.052 25.3854 295.469 25.9688C294.885 26.5521 294.427 27.2396 294.094 28.0312C293.76 28.8229 293.594 29.6667 293.594 30.5625V49ZM343.344 49H341.281L337.969 44.4062C337.156 45.1354 336.292 45.8229 335.375 46.4688C334.479 47.0938 333.531 47.6458 332.531 48.125C331.531 48.5833 330.5 48.9479 329.438 49.2188C328.396 49.4896 327.333 49.625 326.25 49.625C323.896 49.625 321.677 49.2292 319.594 48.4375C317.531 47.6458 315.719 46.5 314.156 45C312.615 43.4792 311.396 41.625 310.5 39.4375C309.604 37.25 309.156 34.7604 309.156 31.9688C309.156 29.3646 309.604 26.9792 310.5 24.8125C311.396 22.625 312.615 20.75 314.156 19.1875C315.719 17.625 317.531 16.4167 319.594 15.5625C321.677 14.6875 323.896 14.25 326.25 14.25C327.333 14.25 328.406 14.3854 329.469 14.6562C330.531 14.9271 331.562 15.3021 332.562 15.7812C333.562 16.2604 334.51 16.8229 335.406 17.4688C336.323 18.1146 337.177 18.8125 337.969 19.5625L341.281 15.5938H343.344V49ZM334.75 31.9688C334.75 30.8021 334.521 29.6771 334.062 28.5938C333.625 27.4896 333.021 26.5208 332.25 25.6875C331.479 24.8333 330.573 24.1562 329.531 23.6562C328.51 23.1354 327.417 22.875 326.25 22.875C325.083 22.875 323.979 23.0729 322.938 23.4688C321.917 23.8646 321.021 24.4479 320.25 25.2188C319.5 25.9896 318.906 26.9479 318.469 28.0938C318.031 29.2188 317.812 30.5104 317.812 31.9688C317.812 33.4271 318.031 34.7292 318.469 35.875C318.906 37 319.5 37.9479 320.25 38.7188C321.021 39.4896 321.917 40.0729 322.938 40.4688C323.979 40.8646 325.083 41.0625 326.25 41.0625C327.417 41.0625 328.51 40.8125 329.531 40.3125C330.573 39.7917 331.479 39.1146 332.25 38.2812C333.021 37.4271 333.625 36.4583 334.062 35.375C334.521 34.2708 334.75 33.1354 334.75 31.9688ZM384.406 39.1562H375.875V30.625H367V22.125H375.875V12.9062H384.406V22.125H393.25V30.625H384.406V39.1562ZM436.594 49H427.656V13.1562H414.188V4.1875H450.031V13.1562H436.594V49ZM461.938 40.8125C462.271 40.9167 462.604 40.9896 462.938 41.0312C463.271 41.0521 463.604 41.0625 463.938 41.0625C464.771 41.0625 465.573 40.9479 466.344 40.7188C467.115 40.4896 467.833 40.1667 468.5 39.75C469.188 39.3125 469.792 38.7917 470.312 38.1875C470.854 37.5625 471.292 36.875 471.625 36.125L477.875 42.4062C477.083 43.5312 476.167 44.5417 475.125 45.4375C474.104 46.3333 472.99 47.0938 471.781 47.7188C470.594 48.3438 469.333 48.8125 468 49.125C466.688 49.4583 465.333 49.625 463.938 49.625C461.583 49.625 459.365 49.1875 457.281 48.3125C455.219 47.4375 453.406 46.2188 451.844 44.6562C450.302 43.0938 449.083 41.2396 448.188 39.0938C447.292 36.9271 446.844 34.5521 446.844 31.9688C446.844 29.3229 447.292 26.9062 448.188 24.7188C449.083 22.5312 450.302 20.6667 451.844 19.125C453.406 17.5833 455.219 16.3854 457.281 15.5312C459.365 14.6771 461.583 14.25 463.938 14.25C465.333 14.25 466.698 14.4167 468.031 14.75C469.365 15.0833 470.625 15.5625 471.812 16.1875C473.021 16.8125 474.146 17.5833 475.188 18.5C476.229 19.3958 477.146 20.4062 477.938 21.5312L461.938 40.8125ZM466.312 23.2188C465.917 23.0729 465.521 22.9792 465.125 22.9375C464.75 22.8958 464.354 22.875 463.938 22.875C462.771 22.875 461.667 23.0938 460.625 23.5312C459.604 23.9479 458.708 24.5521 457.938 25.3438C457.188 26.1354 456.594 27.0938 456.156 28.2188C455.719 29.3229 455.5 30.5729 455.5 31.9688C455.5 32.2812 455.51 32.6354 455.531 33.0312C455.573 33.4271 455.625 33.8333 455.688 34.25C455.771 34.6458 455.865 35.0312 455.969 35.4062C456.073 35.7812 456.208 36.1146 456.375 36.4062L466.312 23.2188ZM511.25 22.1875L505 28.4688C504.688 27.5938 504.26 26.8125 503.719 26.125C503.177 25.4167 502.562 24.8229 501.875 24.3438C501.208 23.8646 500.479 23.5 499.688 23.25C498.896 23 498.083 22.875 497.25 22.875C496.083 22.875 494.979 23.1146 493.938 23.5938C492.917 24.0729 492.021 24.75 491.25 25.625C490.5 26.4792 489.906 27.5 489.469 28.6875C489.031 29.875 488.812 31.1875 488.812 32.625C488.812 33.7917 489.031 34.8854 489.469 35.9062C489.906 36.9271 490.5 37.8229 491.25 38.5938C492.021 39.3646 492.917 39.9688 493.938 40.4062C494.979 40.8438 496.083 41.0625 497.25 41.0625C498.083 41.0625 498.885 40.9479 499.656 40.7188C500.427 40.4896 501.146 40.1667 501.812 39.75C502.5 39.3125 503.104 38.7917 503.625 38.1875C504.167 37.5625 504.604 36.875 504.938 36.125L511.188 42.4062C510.396 43.5312 509.479 44.5417 508.438 45.4375C507.417 46.3333 506.302 47.0938 505.094 47.7188C503.906 48.3438 502.646 48.8125 501.312 49.125C500 49.4583 498.646 49.625 497.25 49.625C494.896 49.625 492.677 49.1875 490.594 48.3125C488.531 47.4167 486.719 46.1979 485.156 44.6562C483.615 43.1146 482.396 41.3125 481.5 39.25C480.604 37.1875 480.156 34.9792 480.156 32.625C480.156 30.0625 480.604 27.6667 481.5 25.4375C482.396 23.2083 483.615 21.2708 485.156 19.625C486.719 17.9583 488.531 16.6458 490.594 15.6875C492.677 14.7292 494.896 14.25 497.25 14.25C498.646 14.25 500.01 14.4271 501.344 14.7812C502.698 15.1354 503.979 15.6562 505.188 16.3438C506.417 17.0104 507.542 17.8333 508.562 18.8125C509.604 19.7917 510.5 20.9167 511.25 22.1875ZM523.969 49H515.438V2.21875H523.969V17C524.99 16.2292 526.042 15.6875 527.125 15.375C528.208 15.0417 529.312 14.875 530.438 14.875C532.5 14.875 534.438 15.2708 536.25 16.0625C538.062 16.8333 539.635 17.9062 540.969 19.2812C542.323 20.6354 543.385 22.2292 544.156 24.0625C544.948 25.875 545.344 27.8125 545.344 29.875V49H536.75V29.875H536.812C536.812 29 536.646 28.1771 536.312 27.4062C535.979 26.6146 535.521 25.9271 534.938 25.3438C534.354 24.7604 533.677 24.3021 532.906 23.9688C532.135 23.6354 531.312 23.4688 530.438 23.4688C529.542 23.4688 528.698 23.6354 527.906 23.9688C527.115 24.3021 526.427 24.7604 525.844 25.3438C525.26 25.9271 524.802 26.6146 524.469 27.4062C524.135 28.1771 523.969 29 523.969 29.875V49Z" fill="#EBEFF0"/>
</svg>
