<svg width="62" height="62" viewBox="0 0 62 62" fill="none" xmlns="http://www.w3.org/2000/svg">
<g clip-path="url(#clip0_42_7)">
<path d="M62 31C62 13.8792 48.1208 0 31 0C13.8792 0 0 13.8792 0 31C0 48.1208 13.8792 62 31 62C48.1208 62 62 48.1208 62 31Z" fill="url(#paint0_radial_42_7)" fill-opacity="0.8"/>
<path d="M52.5 42.4414C52.5 43.4844 52.3008 44.4629 51.9023 45.377C51.5039 46.291 50.959 47.0938 50.2676 47.7852C49.5879 48.4648 48.791 49.0039 47.877 49.4023C46.9629 49.8008 45.9844 50 44.9414 50H32.3379V24.793H44.9414C45.9844 24.793 46.9629 24.9922 47.877 25.3906C48.791 25.7891 49.5879 26.334 50.2676 27.0254C50.959 27.7051 51.5039 28.502 51.9023 29.416C52.3008 30.3301 52.5 31.3086 52.5 32.3516C52.5 32.8203 52.4355 33.3008 52.3066 33.793C52.1777 34.2852 51.9961 34.7598 51.7617 35.2168C51.5273 35.6738 51.2461 36.0898 50.918 36.4648C50.5898 36.8398 50.2266 37.1504 49.8281 37.3965C50.2383 37.6191 50.6074 37.9238 50.9355 38.3105C51.2637 38.6855 51.5449 39.1016 51.7793 39.5586C52.0137 40.0156 52.1895 40.4961 52.3066 41C52.4355 41.4922 52.5 41.9727 52.5 42.4414ZM37.3828 44.9551H44.9414C45.293 44.9551 45.6211 44.8906 45.9258 44.7617C46.2305 44.6328 46.4941 44.457 46.7168 44.2344C46.9512 44 47.1328 43.7305 47.2617 43.4258C47.3906 43.1211 47.4551 42.793 47.4551 42.4414C47.4551 42.0898 47.3906 41.7617 47.2617 41.457C47.1328 41.1523 46.9512 40.8887 46.7168 40.666C46.4941 40.4316 46.2305 40.25 45.9258 40.1211C45.6211 39.9922 45.293 39.9277 44.9414 39.9277H37.3828V44.9551ZM37.3828 34.8828H44.9414C45.293 34.8828 45.6211 34.8184 45.9258 34.6895C46.2305 34.5605 46.4941 34.3848 46.7168 34.1621C46.9512 33.9277 47.1328 33.6582 47.2617 33.3535C47.3906 33.0371 47.4551 32.7031 47.4551 32.3516C47.4551 32 47.3906 31.6719 47.2617 31.3672C47.1328 31.0625 46.9512 30.7988 46.7168 30.5762C46.4941 30.3418 46.2305 30.1602 45.9258 30.0312C45.6211 29.9023 45.293 29.8379 44.9414 29.8379H37.3828V34.8828Z" fill="#FFF2E7"/>
<path d="M24.1738 25.9277V20.8828C24.1738 20.1914 24.0391 19.541 23.7695 18.9316C23.5117 18.3105 23.1543 17.7715 22.6973 17.3145C22.2402 16.8574 21.7012 16.5 21.0801 16.2422C20.4707 15.9727 19.8203 15.8379 19.1289 15.8379C18.4375 15.8379 17.7812 15.9727 17.1602 16.2422C16.5508 16.5 16.0176 16.8574 15.5605 17.3145C15.1035 17.7715 14.7402 18.3105 14.4707 18.9316C14.2129 19.541 14.084 20.1914 14.084 20.8828V25.9277H24.1738ZM29.2188 36H24.1738V30.9551H14.084V36H9.05664V20.8828C9.05664 19.4883 9.32031 18.1816 9.84766 16.9629C10.375 15.7324 11.0898 14.6602 11.9922 13.7461C12.9062 12.832 13.9727 12.1113 15.1914 11.584C16.4219 11.0566 17.7344 10.793 19.1289 10.793C20.5234 10.793 21.8301 11.0566 23.0488 11.584C24.2793 12.1113 25.3516 12.832 26.2656 13.7461C27.1797 14.6602 27.9004 15.7324 28.4277 16.9629C28.9551 18.1816 29.2188 19.4883 29.2188 20.8828V36Z" fill="#FFF2E7"/>
</g>
<defs>
<radialGradient id="paint0_radial_42_7" cx="0" cy="0" r="1" gradientUnits="userSpaceOnUse" gradientTransform="translate(31 31) rotate(90) scale(31)">
<stop stop-color="#45A1F5"/>
</radialGradient>
<clipPath id="clip0_42_7">
<rect width="62" height="62" fill="white"/>
</clipPath>
</defs>
</svg>
